# xmcd
#
# Track frame offsets:
# 150
# 10225
# 28726
# 43054
# 66124
# 77482
# 88960
# 103959
# 123781
# 136713
# 147468
# 160130
# 177169
# 189200
# 205269
# 219577
# 233291
# 248805
# 261657
# 275655
#
# Disc length: 3943 seconds
#
#
# Revision: 0
# Processed by: cddbd v1.5.1PL0 Copyright (c) Steve Scherf et al.
# Submitted via: FreeRIP 2.92 
#
DISCID=1c0f6514
DTITLE=Various Artist - Country dalnice
DYEAR=1996
DGENRE=Country
TTITLE0=Bezvadnej vuz (Tomas Linka)
TTITLE1=Tancim (Robert Krestan)
TTITLE2=Asfaltovy blues (Petr Kocman)
TTITLE3=Hlidej si smer dneska v podvecer (Pavlina Jisova)
TTITLE4=Pan dalnice (Vrata Vyskocil a Taxmeni)
TTITLE5=Tam, kde lezi Phoenix (Pavel Bobek)
TTITLE6=Mzda strachu (Grosaci)
TTITLE7=Teddy Bear (Ladislav Vodicka)
TTITLE8=Je to letni rano (Pavel Zalman Lohonka)
TTITLE9=Za krades dva prsty brat (Honza Vycital)
TTITLE10=To ti davno chci rict (Jindra Malik a Michaela Krmickova)
TTITLE11=Svet se porad meni (Petr Kocman,Jindra Voboril,Michal Cerman)
TTITLE12=Nesmim ji usnout v naruci (Tomas Linka a Petr Kocman)
TTITLE13=To smutny blues (Michaela Krmickova)
TTITLE14=U silnice E-55 (Mirek Hoffmann a Zelenaci)
TTITLE15=Brzdi radsi o chlup driv (Honza Vycital a Petr Kocman)
TTITLE16=Sundej vahu z dusi (Lida Nopova a Petr Kocman)
TTITLE17=Dlouha cerna limuzina (Vrata Vyskocil a Taxmeni)
TTITLE18=Na ceste (Wabi Danek)
TTITLE19=Je prave 05,na ten cekal (Petr Kocman)
EXTD=
EXTT0=
EXTT1=
EXTT2=
EXTT3=
EXTT4=
EXTT5=
EXTT6=
EXTT7=
EXTT8=
EXTT9=
EXTT10=
EXTT11=
EXTT12=
EXTT13=
EXTT14=
EXTT15=
EXTT16=
EXTT17=
EXTT18=
EXTT19=
PLAYORDER=
